# Alias OBJ Model File
# Exported from SketchUp, (c) 2000-2012 Trimble Navigation Limited
# File units = meters

mtllib a.mtl

g Mesh1 A1 Model

usemtl FrontColor
v 3.14176 0 -9.5083
vt -123.691 374.343
vn 0 -1 -0
v 1.21328 0 -0
vt -47.767 0
v -0.063857 0 -0
vt 2.51405 0
f 1/1/1 2/2/1 3/3/1

v 2.07535 0 -2.65645
vt -81.7067 104.585
f 2/2/1 1/1/1 4/4/1

v 2.42656 0 -3.73563
vt -95.534 147.072
f 4/4/1 1/1/1 5/5/1

v 3.88889 0 -8.21839
vt -153.106 323.559
f 5/5/1 1/1/1 6/6/1

v 4.69987 0 -9.5083
vt -185.034 374.343
f 6/6/1 1/1/1 7/7/1

vt -185.034 0
vn 0 0 -1
vt -123.691 0
v 3.14176 2.5 -9.5083
vt -123.691 98.4252
v 4.69987 2.5 -9.5083
vt -185.034 98.4252
f 7/8/2 1/9/2 8/10/2 9/11/2 

vt -394.241 0
vn -0.947596 0 -0.319472
vt 0.803169 0
v -0.063857 2.5 -0
vt 0.803169 98.4252
vt -394.241 98.4252
f 1/12/3 3/13/3 10/14/3 8/15/3 

vt -2.51405 0
vn 0 0 1
vt 47.767 0
v 1.21328 2.5 -0
vt 47.767 98.4252
vt -2.51405 98.4252
f 3/16/4 2/17/4 11/18/4 10/19/4 

vt 14.7444 0
vn 0.951168 0 0.308672
vt 124.698 0
v 2.07535 2.5 -2.65645
vt 124.698 98.4252
vt 14.7444 98.4252
f 2/20/5 4/21/5 12/22/5 11/23/5 

vt 81.7067 0
v 5.70881 0 -2.65645
vt 224.756 0
v 5.70881 2.5 -2.65645
vt 224.756 98.4252
vt 81.7067 98.4252
f 4/24/4 13/25/4 14/26/4 12/27/4 

vt -224.756 104.585
f 5/5/1 13/28/1 4/4/1

v 5.3576 0 -3.73563
vt -210.929 147.072
f 13/28/1 5/5/1 15/29/1

vt -210.929 0
vt -95.534 0
v 2.42656 2.5 -3.73563
vt -95.534 98.4252
v 5.3576 2.5 -3.73563
vt -210.929 98.4252
f 15/30/2 5/31/2 16/32/2 17/33/2 

vt 169.448 0
vn 0.950695 0 0.310127
vt 355.088 0
v 3.88889 2.5 -8.21839
vt 355.088 98.4252
vt 169.448 98.4252
f 5/34/6 6/35/6 18/36/6 16/37/6 

vt -259.807 0
vn -0.950295 0 0.31135
vt -74.0891 0
vt -74.0891 98.4252
vt -259.807 98.4252
f 6/38/7 15/39/7 17/40/7 18/41/7 

f 6/6/1 7/7/1 15/29/1

v 7.90549 0 -0
vt -311.24 0
f 15/29/1 7/7/1 19/42/1

vt -99.4323 0
vn 0.947596 0 -0.319472
vt 295.612 0
vt 295.612 98.4252
v 7.90549 2.5 -0
vt -99.4323 98.4252
f 19/43/8 7/44/8 9/45/8 20/46/8 

vt 185.034 374.343
vn 0 1 -0
vt 210.929 147.072
vt 311.24 0
f 9/47/9 17/48/9 20/49/9

vt 153.106 323.559
f 9/47/9 18/50/9 17/48/9

vt 123.691 374.343
f 8/51/9 18/50/9 9/47/9

vt 95.534 147.072
f 8/51/9 16/52/9 18/50/9

vt 81.7067 104.585
f 8/51/9 12/53/9 16/52/9

f 8/51/9 11/17/9 12/53/9

f 11/17/9 8/51/9 10/16/9

vt 224.756 104.585
f 14/54/9 16/52/9 12/53/9

f 16/52/9 14/54/9 17/48/9

f 20/49/9 17/48/9 14/54/9

v 6.57088 2.5 -0
vt 258.696 0
f 20/49/9 14/54/9 21/55/9

vt -30.1015 0
vn -0.951168 0 0.308672
v 6.57088 0 -0
vt 79.8524 0
vt 79.8524 98.4252
vt -30.1015 98.4252
f 13/56/10 22/57/10 21/58/10 14/59/10 

vt -258.696 0
f 13/28/1 19/42/1 22/60/1

f 15/29/1 19/42/1 13/28/1

vt 311.24 98.4252
vt 258.696 98.4252
f 22/55/4 19/49/4 20/61/4 21/62/4 

